<svg xmlns="http://www.w3.org/2000/svg" viewBox="0 0 64 64" role="img" aria-label="생각공작소">
  <rect width="64" height="64" rx="15" fill="#3a8a5f"/>
  <g fill="#ffffff">
    <rect x="27.5" y="4.5" width="9" height="13" rx="2.5"/>
    <rect x="27.5" y="4.5" width="9" height="13" rx="2.5" transform="rotate(45 32 32)"/>
    <rect x="27.5" y="4.5" width="9" height="13" rx="2.5" transform="rotate(90 32 32)"/>
    <rect x="27.5" y="4.5" width="9" height="13" rx="2.5" transform="rotate(135 32 32)"/>
    <rect x="27.5" y="4.5" width="9" height="13" rx="2.5" transform="rotate(180 32 32)"/>
    <rect x="27.5" y="4.5" width="9" height="13" rx="2.5" transform="rotate(225 32 32)"/>
    <rect x="27.5" y="4.5" width="9" height="13" rx="2.5" transform="rotate(270 32 32)"/>
    <rect x="27.5" y="4.5" width="9" height="13" rx="2.5" transform="rotate(315 32 32)"/>
    <circle cx="32" cy="32" r="15.5"/>
  </g>
  <circle cx="32" cy="32" r="6.5" fill="#3a8a5f"/>
</svg>
